# xmcd
# 
# Track frame offsets:
#     150
#     37092
#     57435
#     77690
#     94056
#     105224
#     125268
#     150052
#     178435
#     198711
#     222305
#     240857
#     255412
#     279337
#     304630
#     320321
#     342657
# 
# Disc length: 4797
# 
# Revision: 3
# Processed by: cddbd v1.5.2PL0 Copyright (c) Steve Scherf et al.
# Submitted via: fre:ac v1.0.31
# 
DISCID=e212bb11
DTITLE=The Moody Blues - Timeless Flight Disc 3
DYEAR=2013
DGENRE=Rock/Pop
TTITLE0=Isn't Life Strange (Original Version)
TTITLE1=Island
TTITLE2=I Dreamed Last Night
TTITLE3=Blue Guitar
TTITLE4=Who Are You Now (Live At Lancaster University 1975)
TTITLE5=Driftwood
TTITLE6=Steppin' In a Slide Zone (Album Version)
TTITLE7=The Day We Meet Again
TTITLE8=Forever Autumn
TTITLE9=The Voice (Full Version)
TTITLE10=Gemini Dream (Full Version)
TTITLE11=Veteran Cosmic Rocker
TTITLE12=Blue World
TTITLE13=Sitting at the Wheel (Album Version)
TTITLE14=Running Water (Live At The Forum 1983)
TTITLE15=The Other Side of Life (Single Version)
TTITLE16=Your Wildest Dreams (Single Edit Version)
EXTD=
EXTT0=
EXTT1=
EXTT2=
EXTT3=
EXTT4=
EXTT5=
EXTT6=
EXTT7=
EXTT8=
EXTT9=
EXTT10=
EXTT11=
EXTT12=
EXTT13=
EXTT14=
EXTT15=
EXTT16=
PLAYORDER=
